<?xml version="1.0" encoding="UTF-8" standalone="no"?>
<svg
   xmlns:dc="http://purl.org/dc/elements/1.1/"
   xmlns:cc="http://creativecommons.org/ns#"
   xmlns:rdf="http://www.w3.org/1999/02/22-rdf-syntax-ns#"
   xmlns:svg="http://www.w3.org/2000/svg"
   xmlns="http://www.w3.org/2000/svg"
   xmlns:sodipodi="http://sodipodi.sourceforge.net/DTD/sodipodi-0.dtd"
   xmlns:inkscape="http://www.inkscape.org/namespaces/inkscape"
   sodipodi:docname="about-bg.svg"
   inkscape:version="1.0 (4035a4f, 2020-05-01)"
   id="svg8"
   version="1.1"
   viewBox="0 0 508.00002 285.74999"
   height="1080"
   width="1920">
  <defs
     id="defs2" />
  <sodipodi:namedview
     showguides="false"
     showborder="true"
     inkscape:window-maximized="1"
     inkscape:window-y="55"
     inkscape:window-x="0"
     inkscape:window-height="723"
     inkscape:window-width="1360"
     units="px"
     showgrid="false"
     inkscape:document-rotation="0"
     inkscape:current-layer="layer1"
     inkscape:document-units="px"
     inkscape:cy="393.4092"
     inkscape:cx="848.73101"
     inkscape:zoom="0.175"
     inkscape:pageshadow="2"
     inkscape:pageopacity="0.0"
     borderopacity="1.0"
     bordercolor="#666666"
     pagecolor="#ffffff"
     id="base" />
  <metadata
     id="metadata5">
    <rdf:RDF>
      <cc:Work
         rdf:about="">
        <dc:format>image/svg+xml</dc:format>
        <dc:type
           rdf:resource="http://purl.org/dc/dcmitype/StillImage" />
        <dc:title></dc:title>
      </cc:Work>
    </rdf:RDF>
  </metadata>
  <g
     id="layer1"
     inkscape:groupmode="layer"
     inkscape:label="Layer 1">
    <g
       transform="matrix(1.4055637,0,0,1.4062499,1.9289744e-6,-1.0116576e-7)"
       id="g856">
      <rect
         style="fill:none;stroke-width:0.246681"
         id="rect1453"
         width="361.41385"
         height="203.2"
         x="4.2117812e-05"
         y="2.4902346e-07" />
      <path
         style="fill:#f3f7fa;fill-opacity:1;stroke:none;stroke-width:0.26458px;stroke-linecap:butt;stroke-linejoin:miter;stroke-opacity:1"
         d="M 5.2435264e-6,140.11604 C 27.322396,130.05009 56.755026,125.10487 86.894443,123.02978 c 19.574957,-1.34773 37.650487,-0.61182 54.515657,5.13052 50.57696,17.22069 70.61654,-11.23532 97.63639,-35.116025 23.67868,-20.92771 43.60585,-41.22798 122.37434,-24.04588 L 361.41383,203.2 H 3.5242946e-5 Z"
         id="path1477"
         sodipodi:nodetypes="cssscccc" />
      <path
         style="fill:#eff4f8;fill-opacity:1;stroke:none;stroke-width:0.26458px;stroke-linecap:butt;stroke-linejoin:miter;stroke-opacity:1"
         d="M -4.75628e-6,203.20001 V 153.67997 C 49.770642,163.67211 65.816673,169.63579 113.76508,151.56796 c 13.43184,-5.06136 56.0612,-10.31487 74.3251,-6.01632 27.94111,6.57614 56.83081,6.99825 68.89385,-23.50917 12.02576,-30.413185 61.26674,-27.661834 104.4298,-33.096334 V 203.20001 Z"
         id="path1493"
         sodipodi:nodetypes="ccsssccc" />
    </g>
  </g>
</svg>
