<?xml version="1.0" encoding="UTF-8" standalone="no"?>
<svg
   xmlns:dc="http://purl.org/dc/elements/1.1/"
   xmlns:cc="http://creativecommons.org/ns#"
   xmlns:rdf="http://www.w3.org/1999/02/22-rdf-syntax-ns#"
   xmlns:svg="http://www.w3.org/2000/svg"
   xmlns="http://www.w3.org/2000/svg"
   xmlns:sodipodi="http://sodipodi.sourceforge.net/DTD/sodipodi-0.dtd"
   xmlns:inkscape="http://www.inkscape.org/namespaces/inkscape"
   id="Capa_1"
   enable-background="new 0 0 512 512"
   height="100"
   viewBox="0 0 100 100"
   width="100"
   version="1.1"
   sodipodi:docname="location-pin.svg"
   inkscape:version="1.0 (4035a4f, 2020-05-01)">
  <metadata
     id="metadata23">
    <rdf:RDF>
      <cc:Work
         rdf:about="">
        <dc:format>image/svg+xml</dc:format>
        <dc:type
           rdf:resource="http://purl.org/dc/dcmitype/StillImage" />
        <dc:title />
      </cc:Work>
    </rdf:RDF>
  </metadata>
  <defs
     id="defs21" />
  <sodipodi:namedview
     inkscape:document-rotation="0"
     pagecolor="#ffffff"
     bordercolor="#666666"
     borderopacity="1"
     objecttolerance="10"
     gridtolerance="10"
     guidetolerance="10"
     inkscape:pageopacity="0"
     inkscape:pageshadow="2"
     inkscape:window-width="1360"
     inkscape:window-height="768"
     id="namedview19"
     showgrid="false"
     inkscape:zoom="3.1433106"
     inkscape:cx="90.723296"
     inkscape:cy="59.557614"
     inkscape:window-x="0"
     inkscape:window-y="32"
     inkscape:window-maximized="0"
     inkscape:current-layer="g851" />
  <g
     id="g16">
    <g
       id="g851"
       transform="matrix(0.2,0,0,0.1953125,0.25188312,0)">
      <g
         transform="matrix(1.1515152,0,0,1.1100885,-36.047299,5.12)"
         id="g844">
        <path
           d="M 256,0 C 165.019,0 91,74.019 91,165 c 0,124.775 148.096,276.307 154.395,282.605 2.93,2.93 6.768,4.395 10.605,4.395 3.837,0 7.676,-1.465 10.605,-4.395 C 272.904,441.307 421,289.775 421,165 421,74.019 346.981,0 256,0 Z m 102.48,173.32 c -4.521,6.793 -13.786,8.809 -20.801,4.16 l -6.68,-4.453 V 255 c 0,8.291 -6.709,15 -15,15 H 196 c -8.291,0 -15,-6.709 -15,-15 v -81.973 l -6.68,4.453 c -6.929,4.556 -16.23,2.71 -20.801,-4.16 -4.6,-6.899 -2.739,-16.201 4.16,-20.801 l 90,-60 c 5.039,-3.369 11.602,-3.369 16.641,0 l 90,60 c 6.9,4.6 8.76,13.902 4.16,20.801 z"
           id="path12"
           style="fill:#1a9094;fill-opacity:1" />
        <path
           d="M 211,153.03 V 240 h 90 v -86.97 l -45,-29.998 z"
           id="path14"
           style="fill:#1a9094;fill-opacity:1" />
      </g>
    </g>
  </g>
</svg>
