<?xml version="1.0" encoding="UTF-8" standalone="no"?>
<svg
   xmlns:dc="http://purl.org/dc/elements/1.1/"
   xmlns:cc="http://creativecommons.org/ns#"
   xmlns:rdf="http://www.w3.org/1999/02/22-rdf-syntax-ns#"
   xmlns:svg="http://www.w3.org/2000/svg"
   xmlns="http://www.w3.org/2000/svg"
   xmlns:sodipodi="http://sodipodi.sourceforge.net/DTD/sodipodi-0.dtd"
   xmlns:inkscape="http://www.inkscape.org/namespaces/inkscape"
   inkscape:version="1.0 (4035a4f, 2020-05-01)"
   sodipodi:docname="planeIcon.svg"
   xml:space="preserve"
   style="enable-background:new 0 0 512 512;"
   viewBox="0 0 512 512"
   y="0px"
   x="0px"
   id="Capa_1"
   version="1.1"><metadata
   id="metadata918"><rdf:RDF><cc:Work
       rdf:about=""><dc:format>image/svg+xml</dc:format><dc:type
         rdf:resource="http://purl.org/dc/dcmitype/StillImage" /></cc:Work></rdf:RDF></metadata><defs
   id="defs916">
	

	

	

	

	

	

	
</defs><sodipodi:namedview
   inkscape:current-layer="Capa_1"
   inkscape:window-maximized="0"
   inkscape:window-y="32"
   inkscape:window-x="0"
   inkscape:cy="324.19551"
   inkscape:cx="262.52424"
   inkscape:zoom="0.55566406"
   showgrid="false"
   id="namedview914"
   inkscape:window-height="768"
   inkscape:window-width="1360"
   inkscape:pageshadow="2"
   inkscape:pageopacity="0"
   guidetolerance="10"
   gridtolerance="10"
   objecttolerance="10"
   borderopacity="1"
   bordercolor="#666666"
   pagecolor="#ffffff" />






<g
   id="g948"><g
     id="g843"
     style="fill:#a2a2a2;fill-opacity:1">
		<path
   id="path841"
   d="M 506.955,1.314 C 503.836,-0.466 500,-0.436 496.91,1.392 L 313.656,109.756 c -4.754,2.811 -6.329,8.943 -3.518,13.697 2.81,4.753 8.942,6.328 13.697,3.518 L 455.317,49.222 210.411,303.335 88.603,266.069 l 158.965,-94 c 4.754,-2.812 6.329,-8.944 3.518,-13.698 -2.81,-4.753 -8.943,-6.33 -13.697,-3.518 L 58.91,260.392 c -3.41,2.017 -5.309,5.856 -4.84,9.791 0.469,3.935 3.216,7.221 7.004,8.38 l 145.469,44.504 64.177,116.813 c 0.067,0.121 0.136,0.223 0.207,0.314 1.071,1.786 2.676,3.245 4.678,4.087 1.253,0.527 2.57,0.784 3.878,0.784 2.563,0 5.086,-0.986 6.991,-2.849 l 73.794,-72.12 138.806,42.466 c 0.96,0.293 1.945,0.438 2.925,0.438 2.116,0 4.206,-0.672 5.948,-1.961 C 510.496,409.153 512,406.17 512,403 V 10 c 0,-3.591 -1.926,-6.907 -5.045,-8.686 z M 271.265,329.23 c -1.158,1.673 -1.779,3.659 -1.779,5.694 v 61.171 L 225.663,316.33 419.584,115.12 Z m 18.221,82.079 v -62.867 l 48.99,14.988 z M 492,389.483 295.501,329.367 492,45.704 Z"
   style="fill:#a2a2a2;fill-opacity:1" />
	</g><g
     id="g849"
     style="fill:#a2a2a2;fill-opacity:1">
		<path
   id="path847"
   d="m 164.423,347.577 c -3.906,-3.905 -10.236,-3.905 -14.143,0 l -93.352,93.352 c -3.905,3.905 -3.905,10.237 0,14.143 1.954,1.952 4.513,2.928 7.072,2.928 2.559,0 5.118,-0.976 7.071,-2.929 l 93.352,-93.352 c 3.905,-3.904 3.905,-10.236 0,-14.142 z"
   style="fill:#a2a2a2;fill-opacity:1" />
	</g><g
     id="g855"
     style="fill:#a2a2a2;fill-opacity:1">
		<path
   id="path853"
   d="m 40.071,471.928 c -3.906,-3.903 -10.236,-3.903 -14.142,10e-4 l -23,23 c -3.905,3.905 -3.905,10.237 0,14.143 C 4.882,511.024 7.441,512 10,512 c 2.559,0 5.118,-0.977 7.071,-2.929 l 23,-23 c 3.905,-3.905 3.905,-10.237 0,-14.143 z"
   style="fill:#a2a2a2;fill-opacity:1" />
	</g><g
     id="g861"
     style="fill:#a2a2a2;fill-opacity:1">
		<path
   id="path859"
   d="m 142.649,494.34 c -1.859,-1.86 -4.439,-2.93 -7.069,-2.93 -2.641,0 -5.21,1.07 -7.07,2.93 -1.86,1.86 -2.93,4.43 -2.93,7.07 0,2.63 1.069,5.21 2.93,7.07 1.86,1.86 4.44,2.93 7.07,2.93 2.63,0 5.21,-1.07 7.069,-2.93 1.86,-1.86 2.931,-4.44 2.931,-7.07 0,-2.64 -1.07,-5.21 -2.931,-7.07 z"
   style="fill:#a2a2a2;fill-opacity:1" />
	</g><g
     id="g867"
     style="fill:#a2a2a2;fill-opacity:1">
		<path
   id="path865"
   d="m 217.051,419.935 c -3.903,-3.905 -10.233,-3.905 -14.142,0 l -49.446,49.445 c -3.905,3.905 -3.905,10.237 0,14.142 1.953,1.953 4.512,2.929 7.071,2.929 2.559,0 5.118,-0.977 7.071,-2.929 l 49.446,-49.445 c 3.905,-3.905 3.905,-10.237 0,-14.142 z"
   style="fill:#a2a2a2;fill-opacity:1" />
	</g><g
     id="g873"
     style="fill:#a2a2a2;fill-opacity:1">
		<path
   id="path871"
   d="m 387.704,416.139 c -3.906,-3.904 -10.236,-3.904 -14.142,0 l -49.58,49.58 c -3.905,3.905 -3.905,10.237 0,14.143 1.953,1.952 4.512,2.929 7.071,2.929 2.559,0 5.118,-0.977 7.071,-2.929 l 49.58,-49.58 c 3.905,-3.905 3.905,-10.237 0,-14.143 z"
   style="fill:#a2a2a2;fill-opacity:1" />
	</g><g
     id="g879"
     style="fill:#a2a2a2;fill-opacity:1">
		<path
   id="path877"
   d="m 283.5,136.31 c -1.86,-1.86 -4.44,-2.93 -7.07,-2.93 -2.63,0 -5.21,1.07 -7.07,2.93 -1.859,1.86 -2.93,4.44 -2.93,7.08 0,2.63 1.07,5.2 2.93,7.06 1.86,1.87 4.44,2.93 7.07,2.93 2.63,0 5.21,-1.06 7.07,-2.93 1.859,-1.86 2.93,-4.43 2.93,-7.06 0,-2.64 -1.07,-5.22 -2.93,-7.08 z"
   style="fill:#a2a2a2;fill-opacity:1" />
	</g></g>
<g
   id="g883">
</g>
<g
   id="g885">
</g>
<g
   id="g887">
</g>
<g
   id="g889">
</g>
<g
   id="g891">
</g>
<g
   id="g893">
</g>
<g
   id="g895">
</g>
<g
   id="g897">
</g>
<g
   id="g899">
</g>
<g
   id="g901">
</g>
<g
   id="g903">
</g>
<g
   id="g905">
</g>
<g
   id="g907">
</g>
<g
   id="g909">
</g>
<g
   id="g911">
</g>
</svg>
