<?xml version="1.0" encoding="UTF-8"?>
<svg width="500" height="500" version="1.1" viewBox="0 0 132.29 132.29" xmlns="http://www.w3.org/2000/svg" xmlns:cc="http://creativecommons.org/ns#" xmlns:dc="http://purl.org/dc/elements/1.1/" xmlns:rdf="http://www.w3.org/1999/02/22-rdf-syntax-ns#">
 <metadata>
  <rdf:RDF>
   <cc:Work rdf:about="">
    <dc:format>image/svg+xml</dc:format>
    <dc:type rdf:resource="http://purl.org/dc/dcmitype/StillImage"/>
    <dc:title/>
   </cc:Work>
  </rdf:RDF>
 </metadata>
 <g transform="translate(221.17 52.299)">
  <g transform="matrix(.74167 0 0 .73851 -57.133 -13.676)">
   <g>
    <path d="m-221.09 67.917 88.987 53.215 89.097-53.426-89.006-52.882z" fill="#ec6768"/>
    <path d="m-221.1 67.753-0.0668 7.6506 89.228 51.431-0.027-7.6992-82.443-47.603z" fill="#d35159"/>
    <path d="m-131.96 119.14 82.544-47.792 6.4234-3.4565 0.20045 7.684-89.141 51.264z" fill="#bd3832"/>
   </g>
   <g transform="translate(-.008931 -.18117)">
    <path d="m-214.41 3.0238v68.508l82.526-47.494-0.0167-68.672z" fill="#1a9094"/>
    <path d="m-131.9-44.634 82.194 47.752 0.28348 68.225-82.46-47.305z" fill="#24a6a6"/>
    <path d="m-214.41 71.532-6.6917-3.7792 0.26727-68.421 6.4244 3.692z" fill="#24a6a6"/>
    <path d="m-220.83-0.66817 88.867-51.449 89.04 51.409-6.7799 3.827-82.194-47.752-82.509 47.658z" fill="#28bcbc"/>
    <path d="m-42.924-0.70871-0.07306 68.595-6.4234 3.4565-0.28348-68.225z" fill="#1b8f93"/>
   </g>
   <g>
    <path d="m-195.61 71.966c-1e-5 0.78281-2.3418 1.8426-4.1814 1.8426s-3.9924-1.1071-3.9924-1.8899 2.3418-2.1734 4.1814-2.1734c1.8396 1e-6 3.9924 1.4378 3.9924 2.2206z" fill="#c5403f"/>
    <path d="m-197.28 71.862c-1.7274 1.8486-3.7196 1.355-4.7106 0.46772-3.0712-2.7495-2.1802-6.4323-2.6059-9.8556 0.9768-1.4282 2.7362-2.3041 4.4768-2.3386 2.0044 0.19321 3.859 0.58606 4.744 2.2718 0.38114 4.2778-0.35989 7.8019-1.9043 9.4547z" fill="#fcf4fd"/>
    <path d="m-195.82 63.547c-1e-5 0.78281-2.3418 1.8426-4.1814 1.8426s-3.9924-1.1071-3.9924-1.8899 2.3418-2.1734 4.1814-2.1734c1.8396 1e-6 3.9924 1.4378 3.9924 2.2206z" fill="#081919"/>
    <g>
     <path d="m-197.49 52.539 0.0806-1.5904c1.2796-2.0709 2.3908-4.2788 4.0424-6.047 1.6817-1.8299 3.632-3.1229 5.5792-4.5102l-4.5102 5.1115c-1.1239 1.434-1.9754 3.2313-2.8397 5.0113z" fill="#0b7e47" stroke="#0b7e47" stroke-width=".26458px"/>
     <path d="m-200.89 63.644 2.1382 0.10022-0.10023-3.3075 3.7656-7.3423c2.2971-2.1912 4.4584-4.4277 6.3783-6.7447-3.4697 1.5228-6.1892 3.7957-8.788 6.1894-1.3617 2.403-2.5766 4.894-3.4941 7.5635z" fill="#085640" stroke="#085640" stroke-width=".26458"/>
     <g stroke-width=".26458px">
      <path d="m-197.49 52.539c-0.0354-3.0586 0.1907-6.0736-0.33073-9.2132l-0.81703-1.9591c-0.50596 4.9435-0.81703 9.9195-0.78936 14.952z" fill="#0c7140" stroke="#0c7140"/>
      <path d="m-199.81 57.216c-1.2945-3.5478-2.7377-6.5506-4.2995-9.1187-1.7041-1.7701-3.6628-2.7763-5.5279-4.0632 1.3035 1.6191 2.5175 3.2916 3.7325 4.9137 1.9296 3.2188 3.8454 6.4487 5.3389 10.016z" fill="#0d7e48" stroke="#0d7e48"/>
      <path d="m-204.39 51.516c-2.3275-1.2959-4.655-1.9882-6.9824-2.7729 1.997 1.4473 3.9373 2.7247 6.0136 4.4099 1.6466 1.894 3.0861 4.2537 4.3765 6.949l0.42306-1.1379c-1.5248-3.5362-2.6467-5.3599-3.8308-7.4481z" fill="#127035" stroke="#127035"/>
      <path d="m-199.42 52.318c-1.2207-4.1607-1.6742-8.604-4.4434-12.194l-3.1738-2.9734c1.1624 2.5251 2.455 4.9634 3.3743 7.6506 0.80846 2.0405 0.96435 4.1898 1.2695 6.3142l2.5822 6.1008 0.37798-0.89769z" fill="#10522c" stroke="#10522c"/>
     </g>
    </g>
   </g>
   <g>
    <path d="m-147.4 57.897-8.0181 4.7774 34.411 19.978 17.84-10.49-8.4858-5.1449z" fill="#be3839"/>
    <path d="m-153.95 52.251 16.437-9.3544 32.206 18.843-16.036 9.6217z" fill="#4ea1cb"/>
    <path d="m-153.95 52.251 0.33409 10.29c0.54138 0.55165 0.689 0.11888 0.93544-0.06682l-0.0668-7.7508 30.602 17.773 0.20045 8.419c0.48867 0.47812 0.82297 0.223 1.1359-0.13363l0.0424-8.5888 14.08-8.1265 0.14174 7.7013c0.4279 0.59661 0.76738 0.51111 1.0394-0.09449v-8.221l0.19841-1.7135-16.036 9.6217z" fill="#5486aa"/>
    <path d="m-127.05 62.65 4.6775-6.2839c1.1878-0.06488 2.2924 0.28694 3.3545 0.85045l-4.7247 6.4728z" fill="#124361"/>
    <path d="m-127.05 62.65-0.0709 1.0158 3.5061 0.61827 4.7858-6.0753-0.18899-0.99219-4.7247 6.4728z" fill="#1f4f67"/>
    <g fill="#3ca5a7">
     <rect x="-123.08" y="57.83" width=".83522" height=".53454"/>
     <rect x="-122.07" y="57.96" width=".83522" height=".53454"/>
     <rect x="-121.11" y="58.232" width=".83522" height=".53454"/>
     <rect x="-123.65" y="58.515" width=".83522" height=".53454"/>
     <rect x="-122.73" y="58.883" width=".83522" height=".53454"/>
     <rect x="-121.71" y="59.083" width=".83522" height=".53454"/>
     <rect x="-124.15" y="59.284" width=".83522" height=".53454"/>
     <rect x="-123.24" y="59.601" width=".83522" height=".53454"/>
     <rect x="-122.31" y="59.868" width=".83522" height=".53454"/>
     <rect x="-124.58" y="60.019" width=".90203" height=".53454"/>
     <rect x="-123.51" y="60.403" width=".93544" height=".53454"/>
     <rect x="-123.78" y="61.155" width=".93544" height=".53454"/>
     <rect x="-125.13" y="60.687" width=".90203" height=".53454"/>
    </g>
    <rect x="-122.53" y="56.799" width="1.1478" height=".8926" ry=".31738" fill="#ca7183"/>
    <path d="m-138.92 51.032c-0.12827 0.66783-0.45011 1.2876-0.74983 1.9125 0.56795 0.13462 1.4049-0.07641 1.7012-0.76274 0.0868-0.71696-0.29434-0.77313-0.95136-1.1498zm-0.0351 0.3545s0.5183 0.34778 0.44855 0.6258c-0.0896 0.35714-0.93276 0.51987-0.93276 0.51987z" fill="#ffd069"/>
    <path d="m-142.74 53.934c-0.60481-0.93986-1.0717-1.9257-1.4093-2.9546-0.0755-0.76328-0.10816-1.5194 0.18899-2.2206 2.0258-1.3282 3.6556-0.87459 5.1499 0.18899 0.20422 0.7464 0.15504 1.4421 0.0472 2.1261-0.30136 1.1018-0.76662 2.1216-1.6007 2.957z" fill="#f7b90b"/>
    <ellipse cx="-141.46" cy="49.81" rx="2.197" ry=".98038" fill="#6a3118" opacity=".56913"/>
   </g>
   <g>
    <path d="m-190.93 85.234 0.0472-26.317 41.407 23.97 0.20045 26.226z" fill="#fcb815"/>
    <path d="m-190.88 58.917 3.7894-2.3227 41.473 24.198-3.8552 2.0946z" fill="#ffd069"/>
    <path d="m-145.62 80.792-0.0466 8.7429 15.101-8.8199 0.20045 17.439-18.909 10.958-0.20045-26.226z" fill="#f4a71d"/>
    <path d="m-130.56 80.715-3.6204-2.3326-11.576 6.8508 0.0951 4.3017z" fill="#fad06f"/>
    <path d="m-145.62 80.792 3.8742 2.1261-4.016 2.3151z" fill="#faba1d"/>
    <path d="m-183.32 58.87 7.6068-4.394 3.638 2.1734-7.3233 4.4885z" fill="#fbd26a"/>
    <path d="m-172.07 56.649 0.23624 8.7879-7.5595-4.2995z" fill="#f3a522"/>
    <path d="m-130.36 98.155 0.31331-0.47151 0.98037 0.63783-19.336 11.339-0.86721-0.54756z" fill="#c13a34"/>
   </g>
   <path d="m-188.73 23.319 31.471-18.208-0.0334-16.136-31.538 18.208z" fill="none"/>
   <g>
    <path d="m-152.14-15.214-37.609 21.923 0.21655 36.589 37.318-21.916z" fill="#fcfbfb"/>
    <path d="m-191.03 5.7976-0.0334 37.057 1.5368 0.44266-0.21655-36.589z" fill="#fafdfe"/>
    <path d="m-176.53 16.37 0.13363 9.8222-12.294 7.2163 0.0822 1.7903 13.938-8.221-0.0827-11.646z" fill="#f0eef1"/>
    <path d="m-173.66 24.923 13.998-8.0515 0.13363-10.29 1.119-0.72288 0.1839 11.614-15.468 8.9869z" fill="#f0f0f0"/>
    <path d="m-188.83 11.493c0.86863-0.26727 31.521-17.991 31.521-17.991l0.0195 5.2223-31.474 18.047z" fill="#4da1cd"/>
    <path d="m-188.8 21.025 31.511-18.219 0.0334 2.3052-31.471 18.208z" fill="#2f7ca5"/>
    <path d="m-188.76 16.771 31.474-18.047-3e-3 4.082-31.511 18.219z" fill="#4da1cd"/>
    <path d="m-188.83 11.493 31.521-17.991 0.0167-4.5269-31.538 18.208z" fill="#4da1cd"/>
    <path d="m-188.76 15.816c0.86863-0.26727 31.403-18.109 31.403-18.109l0.0667 1.0173-31.474 18.047z" fill="#2f7ca5"/>
    <path d="m-188.76 10.656c0.86863-0.26727 31.403-18.109 31.403-18.109l0.0667 1.0173-31.474 18.047z" fill="#2f7ca5"/>
    <path d="m-188.69 33.409 12.294-7.2163-0.13363-9.8222-12.194 6.949z" fill="#c0d8da"/>
    <path d="m-173.62 14.7-0.0334 10.223 13.998-8.0515 0.13363-10.29z" fill="#c0d8da"/>
    <path d="m-188.69 33.409 0.10023-2.0217 12.151-7.0158 0.0432 1.8213z" fill="#d9ecea"/>
    <path d="m-173.66 24.923 6e-3 -2.0266 14.015-7.7159-0.0225 1.691z" fill="#d9ecea"/>
    <path d="m-159.53 6.5815-0.13362 10.29-1.3537-0.9089-0.0513-8.4975z" fill="#d0e4e8"/>
    <path d="m-152.14-15.214-1.5112-0.7224-37.384 21.734 1.2868 0.91148z" fill="#fafdfe"/>
    <path d="m-152.23-14.032-36.596 21.215 0.23386 34.578 36.349-21.148 0.0334 0.7684-37.318 21.916-0.21655-36.589 37.609-21.923z" fill="#e3dfdc"/>
    <path d="m-157.29-11.025 0.0334 16.136 5.0113 12.01 0.0135-31.154z" fill="#e3dfdc"/>
    <path d="m-152.21 21.382 0.0334-8.5192-0.56795-0.01671-0.13364 8.9201z" fill="#e3dfdc"/>
    <path d="m-188.66 36.404 31.503-18.497-0.10023-12.796-1.1528 0.7471 0.1839 11.614-15.468 8.9869 0.0668-11.76-1.1299 0.63184 0.0827 11.646-13.938 8.221z" fill="#dfdfdf"/>
   </g>
   <g>
    <path d="m-112.83 12.946 0.18899-24.379 40.16 23.718-0.09449 24.001z" fill="#0d161b"/>
    <path d="m-112.64-11.434 0.73449-0.66017 40.849 23.769-1.4236 0.60873z" fill="#485151"/>
    <path d="m-71.053 11.675-0.15077 24.282-1.3673 0.32836 0.09449-24.001z" fill="#3a3a3a"/>
   </g>
   <g>
    <path d="m-125.63 25.277 11.67-6.9453 43.326 25.23-11.623 6.6618z" fill="#fcfcfc"/>
    <path d="m-82.257 50.224 0.13851 16.26 11.76-7.0158-0.2756-15.906z" fill="#e0e0e0"/>
    <path d="m-125.63 25.277-0.21261 16.04 1.9371 1.1812 1.252-1.0394 38.695 22.371-0.09449 1.6536 1.9339 0.99892-0.13851-16.26z" fill="#f1f1f1"/>
    <path d="m-123.98 28.726 0.0473 10.3 12.001 6.5201 0.23624-10.016z" fill="#fcfcfc"/>
    <path d="m-109.88 36.683-0.0334 9.9892 12.027 6.7151 0.23386-9.7219z" fill="#fcfcfc"/>
    <path d="m-109.91 46.672 8.6642-4.9528-8.6308-5.0364z" fill="#e0e0e0"/>
    <path d="m-123.93 39.026 7.843-5.9059-7.8902-4.394z" fill="#e0e0e0"/>
    <path d="m-98.99 42.897-4.3765 0.83522 1.8375 2.6727 3.8086-0.73499z" fill="#2abab5"/>
    <path d="m-103.37 43.732 0.0668 1.7454 1.6704 1.6957 3.8754-0.70158 0.03341-0.80181-3.8086 0.73499z" fill="#229393"/>
    <path d="m-103.3 45.477-6e-3 1.9351 1.63 2.9766 3.8743-0.94494 0.04749-2.9725-3.8754 0.70158z" fill="#6fbfbc"/>
    <path d="m-119.7 31.137-1.9377 1.0023 0.0508 5.1387 2.0789 0.66146 0.0709-5.3862 0.96856-0.73233z" fill="#30b2b3"/>
    <path d="m-119.7 31.137-1.8375 0.96885 2.1003 0.44745 0.96856-0.73233z" fill="#f0fdf5"/>
    <path d="m-115.53 33.476-1.9377 1.019 1.5702 4.9779 1.3698-0.10022-1.7707-4.7607 1.4199-0.80181z" fill="#185874"/>
    <path d="m-114.88 33.81-1.4199 0.80181 1.7707 4.7607 2.3887-1.5368-1.2862-3.2406z" fill="#063755"/>
    <path d="m-118.47 31.821-0.96856 0.73233-0.0709 5.3862 1.7009 1.0631 1.4174-1.0158-1.0719-3.4921 1.9377-1.019z" fill="#d84f58"/>
    <path d="m-118.12 31.963-0.74987 0.52461 1.057 0.43214 0.61421-0.42522z" fill="#fff"/>
    <path d="m-117.81 32.919v6.0831l1.4174-1.0158-1.0719-3.4921 1.9377-1.019-1.669-0.98137z" fill="#b53b3c"/>
    <path d="m-96.077 44.625v9.7801l11.987 7.3343 0.13363-10.156z" fill="#fcfcfc"/>
    <path d="m-96.077 54.405 8.379-4.8599-8.379-4.9203z" fill="#e0e0e0"/>
   </g>
   <g>
    <path d="m-127.96 0.53454 3.2072 1.8709 2.8063-1.6704-3.1404-1.8709z" fill="#073347"/>
    <path d="m-127.96 0.53454 0.0334 19.277 3.2325 1.4187-0.0587-18.825z" fill="#073445"/>
    <path d="m-121.94 0.73499 0.18614 19.062-2.9338 1.4335-0.0587-18.825z" fill="#002c2f"/>
    <path d="m-125.57 20.841-0.0582 4.4359 1.4174-0.82682-0.0869-3.4359-0.39005 0.21561z" fill="#041b21"/>
    <path d="m-125.76 30.386 0.0236 3.7798s-3.1016-1.4383-3.0711-2.5513c0.0291-1.061 3.0475-1.2284 3.0475-1.2284z" fill="#041b21"/>
    <path d="m-125.72 29.246 0.0236 3.7798s-2.7-0.89496-2.6695-2.008c0.0291-1.061 2.6459-1.7718 2.6459-1.7718z" fill="#083842"/>
    <ellipse cx="-126.35" cy="5.0447" rx="1.1025" ry="1.4032" fill="#50717f" opacity=".60772"/>
   </g>
   <ellipse cx="-126.35" cy="5.1032" rx=".63477" ry=".74334" fill="#002b2e" fill-opacity=".56078"/>
   <g>
    <ellipse cx="-126.35" cy="11.305" rx="1.1025" ry="1.4032" fill="#345968" opacity=".60772"/>
    <ellipse cx="-126.38" cy="11.198" rx=".63477" ry=".74334" fill="#173f47"/>
    <ellipse cx="-126.49" cy="17.069" rx="1.1025" ry="1.4032" fill="#345968" opacity=".60772"/>
    <ellipse cx="-126.54" cy="17.08" rx=".63477" ry=".74334" fill="#173f47"/>
   </g>
   <g>
    <path d="m-67.422 35.577 2.5986-1.7481 3.26 1.7481-2.9293 1.6064z" fill="#043549"/>
    <path d="m-67.422 35.577-0.23624 19.135 3.0238 1.4174 0.14174-18.946z" fill="#073548"/>
    <path d="m-64.492 37.183 2.9293-1.6064-0.05298 18.968-3.0181 1.5845z" fill="#071b1b"/>
    <path d="m-61.232 66.695a3.4136 1.9426 0 0 1-3.4136 1.9426 3.4136 1.9426 0 0 1-3.4136-1.9426 3.4136 1.9426 0 0 1 3.4136-1.9426 3.4136 1.9426 0 0 1 3.4136 1.9426z" fill="#2f160d"/>
    <path d="m-61.043 66.128a3.4136 1.9426 0 0 1-3.4136 1.9426 3.4136 1.9426 0 0 1-3.4136-1.9426 3.4136 1.9426 0 0 1 3.4136-1.9426 3.4136 1.9426 0 0 1 3.4136 1.9426z" fill="#063940"/>
    <path d="m-65.124 55.876-0.26576 9.8687c0.58586 0.52284 1.0992 0.42941 1.5592-0.11812l-0.11812-9.8687-0.68508 0.37207z" fill="#001c20"/>
    <ellipse cx="-66.032" cy="39.84" rx=".91874" ry="1.186" fill="#345968"/>
    <ellipse cx="-66.099" cy="39.832" rx=".56795" ry=".74334" fill="#0e3840"/>
    <ellipse cx="-66.099" cy="45.72" rx=".91874" ry="1.186" fill="#345968"/>
    <ellipse cx="-66.149" cy="45.812" rx=".56795" ry=".74334" fill="#16363f"/>
    <ellipse cx="-66.066" cy="52.067" rx=".91874" ry="1.186" fill="#345968"/>
    <ellipse cx="-66.066" cy="52.076" rx=".56795" ry=".74334" fill="#163139"/>
   </g>
  </g>
 </g>
</svg>
