<?xml version="1.0" encoding="UTF-8" standalone="no"?>
<svg
   xmlns:dc="http://purl.org/dc/elements/1.1/"
   xmlns:cc="http://creativecommons.org/ns#"
   xmlns:rdf="http://www.w3.org/1999/02/22-rdf-syntax-ns#"
   xmlns:svg="http://www.w3.org/2000/svg"
   xmlns="http://www.w3.org/2000/svg"
   xmlns:xlink="http://www.w3.org/1999/xlink"
   xmlns:sodipodi="http://sodipodi.sourceforge.net/DTD/sodipodi-0.dtd"
   xmlns:inkscape="http://www.inkscape.org/namespaces/inkscape"
   inkscape:version="1.0 (4035a4f, 2020-05-01)"
   sodipodi:docname="bedroomIcon.svg"
   version="1.1"
   viewBox="0 0 512 512"
   height="100"
   width="100"
   data-name="Line cutting cutting Ex"
   id="Line_cutting_cutting_Ex">
  <metadata
     id="metadata848">
    <rdf:RDF>
      <cc:Work
         rdf:about="">
        <dc:format>image/svg+xml</dc:format>
        <dc:type
           rdf:resource="http://purl.org/dc/dcmitype/StillImage" />
        <dc:title />
      </cc:Work>
    </rdf:RDF>
  </metadata>
  <defs
     id="defs846">
    <linearGradient
       id="linearGradient854"
       inkscape:collect="always">
      <stop
         id="stop850"
         offset="0"
         style="stop-color:#f3f7fa;stop-opacity:1;" />
      <stop
         id="stop852"
         offset="1"
         style="stop-color:#f3f7fa;stop-opacity:0;" />
    </linearGradient>
    <linearGradient
       gradientUnits="userSpaceOnUse"
       y2="489.58926"
       x2="256.32339"
       y1="28.8389"
       x1="256.32339"
       id="linearGradient856"
       xlink:href="#linearGradient854"
       inkscape:collect="always" />
  </defs>
  <sodipodi:namedview
     inkscape:current-layer="Line_cutting_cutting_Ex"
     inkscape:window-maximized="0"
     inkscape:window-y="23"
     inkscape:window-x="0"
     inkscape:cy="37.706931"
     inkscape:cx="68.620672"
     inkscape:zoom="1.4142136"
     showgrid="false"
     id="namedview844"
     inkscape:window-height="755"
     inkscape:window-width="1278"
     inkscape:pageshadow="2"
     inkscape:pageopacity="0"
     guidetolerance="10"
     gridtolerance="10"
     objecttolerance="10"
     borderopacity="1"
     bordercolor="#666666"
     pagecolor="#ffffff"
     inkscape:document-rotation="0"
     showborder="true" />
  <g
     id="g864">
    <circle
       style="fill:url(#linearGradient856);stroke-width:8.38511;fill-opacity:1"
       id="path850"
       cx="256.36838"
       cy="259.19391"
       r="230.39999" />
    <g
       style="fill:#1a9094;fill-opacity:1"
       id="g841"
       transform="matrix(0.64285715,0,0,0.64285715,91.796932,94.622343)">
      <path
         style="fill:#1a9094;fill-opacity:1"
         d="M 469.282,344.03 A 27.839,27.839 0 0 0 472,332 V 292 A 28.032,28.032 0 0 0 444,264 H 431.889 A 18.026,18.026 0 0 0 414,248 H 160 a 8,8 0 0 0 -8,8 v 8 h -21.359 a 28.016,28.016 0 0 0 2.487,-15.473 l -11,-88 A 28.044,28.044 0 0 0 94.345,136 H 84 A 27.839,27.839 0 0 0 71.97,138.718 28.034,28.034 0 0 0 44,112 H 24 a 8,8 0 0 0 -8,8 v 40 h 16 v -32 h 12 a 12.013,12.013 0 0 1 12,12 V 408 H 32 V 176 H 16 v 288 a 8,8 0 0 0 8,8 H 43.17 A 47.938,47.938 0 0 0 88.707,439.179 L 93.766,424 H 368 V 408 H 72 v -48 h 396 a 12.013,12.013 0 0 1 12,12 v 36 h -96 v 16 h 34.234 l 5.059,15.18 A 47.939,47.939 0 0 0 468.83,472 H 488 a 8,8 0 0 0 8,-8 V 372 A 28.034,28.034 0 0 0 469.282,344.03 Z M 76.9,424 73.527,434.119 A 31.957,31.957 0 0 1 43.17,456 H 32 V 424 Z M 416,266 v 46 H 216 v -48 h 198 a 2,2 0 0 1 2,2 z m -248,-2 h 32 v 48 H 168 Z M 84,152 h 10.345 a 12.019,12.019 0 0 1 11.906,10.512 l 11,88 A 12,12 0 0 1 105.345,264 H 72 V 164 A 12.013,12.013 0 0 1 84,152 Z M 72,344 v -64 h 80 v 40 a 8,8 0 0 0 8,8 h 264 a 8,8 0 0 0 8,-8 v -40 h 12 a 12.013,12.013 0 0 1 12,12 v 40 a 12.013,12.013 0 0 1 -12,12 z M 480,456 H 468.83 A 31.957,31.957 0 0 1 438.473,434.12 L 435.1,424 H 480 Z"
         id="path833" />
      <path
         style="fill:#1a9094;fill-opacity:1"
         d="m 285.85,202.174 16.59,9.074 9.075,16.591 a 8,8 0 0 0 14.037,0 l 9.074,-16.591 16.591,-9.074 a 8,8 0 0 0 0,-14.037 l -16.591,-9.074 -9.074,-16.59 a 8,8 0 0 0 -14.037,0 l -9.075,16.59 -16.59,9.074 a 8,8 0 0 0 0,14.037 z m 26.324,-10.2 a 8,8 0 0 0 3.18,-3.18 l 3.179,-5.814 3.18,5.814 a 8,8 0 0 0 3.18,3.18 l 5.812,3.178 -5.812,3.18 a 7.989,7.989 0 0 0 -3.18,3.18 l -3.18,5.813 -3.179,-5.813 a 8,8 0 0 0 -3.18,-3.18 l -5.813,-3.18 z"
         id="path835" />
      <path
         style="fill:#1a9094;fill-opacity:1"
         d="m 188.161,115.863 16.591,9.074 9.074,16.59 a 8,8 0 0 0 14.037,0 l 9.074,-16.59 16.59,-9.074 a 8,8 0 0 0 0,-14.037 l -16.59,-9.074 -9.074,-16.591 a 8,8 0 0 0 -14.037,0 l -9.074,16.591 -16.591,9.074 a 8,8 0 0 0 0,14.037 z m 26.324,-10.2 a 7.989,7.989 0 0 0 3.18,-3.18 l 3.18,-5.812 3.178,5.812 a 8,8 0 0 0 3.18,3.18 l 5.813,3.18 -5.813,3.178 a 8,8 0 0 0 -3.18,3.18 l -3.178,5.813 -3.18,-5.813 a 8,8 0 0 0 -3.18,-3.18 l -5.812,-3.178 z"
         id="path837" />
      <path
         style="fill:#1a9094;fill-opacity:1"
         d="m 338.473,83.863 16.59,9.074 9.074,16.59 a 8,8 0 0 0 14.037,0 l 9.074,-16.59 16.591,-9.074 a 8,8 0 0 0 0,-14.037 l -16.591,-9.074 -9.074,-16.591 a 8,8 0 0 0 -14.037,0 l -9.074,16.591 -16.59,9.074 a 8,8 0 0 0 0,14.037 z m 26.324,-10.2 a 8,8 0 0 0 3.18,-3.18 l 3.178,-5.812 3.18,5.812 a 7.989,7.989 0 0 0 3.18,3.18 l 5.812,3.18 -5.812,3.178 a 8,8 0 0 0 -3.18,3.18 l -3.18,5.813 -3.178,-5.814 a 8,8 0 0 0 -3.18,-3.18 l -5.813,-3.178 z"
         id="path839" />
    </g>
  </g>
</svg>
