<?xml version="1.0" encoding="UTF-8" standalone="no"?>
<svg
   xmlns:dc="http://purl.org/dc/elements/1.1/"
   xmlns:cc="http://creativecommons.org/ns#"
   xmlns:rdf="http://www.w3.org/1999/02/22-rdf-syntax-ns#"
   xmlns:svg="http://www.w3.org/2000/svg"
   xmlns="http://www.w3.org/2000/svg"
   xmlns:sodipodi="http://sodipodi.sourceforge.net/DTD/sodipodi-0.dtd"
   xmlns:inkscape="http://www.inkscape.org/namespaces/inkscape"
   sodipodi:docname="contact-bg.svg"
   inkscape:version="1.0 (4035a4f, 2020-05-01)"
   id="svg8"
   version="1.1"
   viewBox="0 0 507.99999 285.75001"
   height="1080"
   width="1920">
  <defs
     id="defs2" />
  <sodipodi:namedview
     inkscape:window-maximized="0"
     inkscape:window-y="55"
     inkscape:window-x="0"
     inkscape:window-height="723"
     inkscape:window-width="1252"
     showborder="true"
     units="px"
     showgrid="false"
     inkscape:document-rotation="0"
     inkscape:current-layer="layer1"
     inkscape:document-units="px"
     inkscape:cy="-906.55686"
     inkscape:cx="-649.55883"
     inkscape:zoom="0.056568542"
     inkscape:pageshadow="2"
     inkscape:pageopacity="0.0"
     borderopacity="1.0"
     bordercolor="#666666"
     pagecolor="#ffffff"
     id="base" />
  <metadata
     id="metadata5">
    <rdf:RDF>
      <cc:Work
         rdf:about="">
        <dc:format>image/svg+xml</dc:format>
        <dc:type
           rdf:resource="http://purl.org/dc/dcmitype/StillImage" />
        <dc:title></dc:title>
      </cc:Work>
    </rdf:RDF>
  </metadata>
  <g
     id="layer1"
     inkscape:groupmode="layer"
     inkscape:label="Layer 1">
    <g
       transform="translate(188.9881,-30.994049)"
       id="g888">
      <rect
         style="fill:none;stroke-width:0.439117"
         id="rect833"
         width="508"
         height="285.75"
         x="-188.9881"
         y="30.994049" />
      <path
         style="fill:#f3f7fa;fill-opacity:1;stroke:none;stroke-width:0.264583px;stroke-linecap:butt;stroke-linejoin:miter;stroke-opacity:1"
         d="M -188.9881,30.994049 V 174.25974 c 26.75415,7.84997 49.46372,20.57011 97.139885,0 25.363939,-10.9434 52.980868,-10.93038 91.04640641,0 47.60513259,13.66963 84.51914459,35.93834 164.63802859,0 16.56567,-7.43074 35.04276,-6.06089 52.38483,0 38.09748,13.31472 72.65743,34.13387 102.79076,62.05377 l 9e-5,-205.319461 z"
         id="path883"
         sodipodi:nodetypes="ccssssccc" />
      <path
         style="fill:#eff4f8;fill-opacity:1;stroke:none;stroke-width:0.239267px;stroke-linecap:butt;stroke-linejoin:miter;stroke-opacity:1"
         d="M -188.9881,30.994049 V 136.08957 c 19.4717,-3.25954 34.19924,-10.25291 76.35119,0 11.57841,2.8163 21.601217,7.44441 32.365302,13.27403 19.508955,10.5657 56.229795,6.0875 90.692487,-4.10613 42.87068,-12.6806 114.981041,-6.96949 134.404491,5.02652 20.30339,12.53946 86.45514,9.34787 90.55814,8.82105 18.85049,-2.42039 82.60179,24.55854 83.69605,39.86231 L 319.0119,30.994049 Z"
         id="path867"
         sodipodi:nodetypes="ccsssssccc" />
    </g>
  </g>
</svg>
