<?xml version="1.0" encoding="UTF-8" standalone="no"?>
<svg
   xmlns:dc="http://purl.org/dc/elements/1.1/"
   xmlns:cc="http://creativecommons.org/ns#"
   xmlns:rdf="http://www.w3.org/1999/02/22-rdf-syntax-ns#"
   xmlns:svg="http://www.w3.org/2000/svg"
   xmlns="http://www.w3.org/2000/svg"
   xmlns:sodipodi="http://sodipodi.sourceforge.net/DTD/sodipodi-0.dtd"
   xmlns:inkscape="http://www.inkscape.org/namespaces/inkscape"
   sodipodi:docname="error.svg"
   inkscape:version="1.0 (4035a4f, 2020-05-01)"
   id="svg8"
   version="1.1"
   viewBox="0 0 26.458332 26.458334"
   height="100"
   width="100">
  <defs
     id="defs2" />
  <sodipodi:namedview
     inkscape:window-maximized="1"
     inkscape:window-y="55"
     inkscape:window-x="0"
     inkscape:window-height="723"
     inkscape:window-width="1360"
     showborder="true"
     units="px"
     showgrid="false"
     inkscape:document-rotation="0"
     inkscape:current-layer="layer1"
     inkscape:document-units="px"
     inkscape:cy="68.176073"
     inkscape:cx="37.086217"
     inkscape:zoom="2.8284271"
     inkscape:pageshadow="2"
     inkscape:pageopacity="0.0"
     borderopacity="1.0"
     bordercolor="#666666"
     pagecolor="#ffffff"
     id="base" />
  <metadata
     id="metadata5">
    <rdf:RDF>
      <cc:Work
         rdf:about="">
        <dc:format>image/svg+xml</dc:format>
        <dc:type
           rdf:resource="http://purl.org/dc/dcmitype/StillImage" />
        <dc:title></dc:title>
      </cc:Work>
    </rdf:RDF>
  </metadata>
  <g
     id="layer1"
     inkscape:groupmode="layer"
     inkscape:label="Layer 1">
    <g
       transform="matrix(0.32221565,0,0,0.30607364,-10.828759,-20.851053)"
       id="g919">
      <path
         style="fill:#d8e0e2;fill-opacity:1;stroke:none;stroke-width:0.2;stroke-linecap:butt;stroke-linejoin:miter;stroke-miterlimit:4;stroke-dasharray:none;stroke-opacity:1"
         d="M 39.841053,68.124302 V 154.56864 H 115.72568 V 68.130207 Z"
         id="path915" />
      <rect
         style="opacity:1;fill:#d1d6ec;fill-opacity:1;stroke:none;stroke-width:0.0529167;stroke-miterlimit:4;stroke-dasharray:none"
         id="rect1022"
         width="63.836288"
         height="75.775711"
         x="45.511044"
         y="74.077667"
         ry="0.14499298" />
      <path
         style="fill:#a4b4cd;fill-opacity:1;stroke:none;stroke-width:0.0529167;stroke-linecap:butt;stroke-linejoin:miter;stroke-miterlimit:4;stroke-dasharray:none;stroke-opacity:1"
         d="m 52.712233,130.15525 -2.044525,-2.03077 v -0.3638 l -8.995834,-8.92969 0.264584,-0.26459 c 0.75504,0.14845 1.498676,0.2627 2.009179,-0.32246 l 11.596312,11.61898 z"
         id="path1012"
         sodipodi:nodetypes="cccccccc" />
      <path
         style="fill:#a4b4cd;fill-opacity:1;stroke:none;stroke-width:0.0529167;stroke-linecap:butt;stroke-linejoin:miter;stroke-miterlimit:4;stroke-dasharray:none;stroke-opacity:1"
         d="m 74.066796,144.84284 0.03307,0.16536 -1.785938,1.81901 -0.314192,-0.0331 c -0.150464,-0.44654 -0.655382,-0.66623 -1.35599,-0.76068 l -1.620573,0.21498 -9.143111,-9.17091 -0.327403,-0.0234 -3.800239,-3.63654 h -1.403165 l -6.361015,3.39099 c 4.097175,-3.60475 6.360729,-5.17296 8.731808,-4.96341 z"
         id="path1010"
         sodipodi:nodetypes="ccccccccccccc" />
      <path
         style="fill:none;stroke:none;stroke-width:0.2;stroke-linecap:butt;stroke-linejoin:miter;stroke-miterlimit:4;stroke-dasharray:none;stroke-opacity:1"
         d="m 44.790177,73.65811 v 76.19657 H 110.09834 V 73.616049 Z"
         id="path955" />
      <path
         style="fill:#7f90a7;fill-opacity:1;stroke:none;stroke-width:0.2;stroke-linecap:butt;stroke-linejoin:miter;stroke-miterlimit:4;stroke-dasharray:none;stroke-opacity:1"
         d="m 45.509317,73.677856 v 76.180164 l -0.71914,-0.003 V 73.65811 Z"
         id="path957"
         sodipodi:nodetypes="ccccc" />
      <path
         style="fill:#7f90a7;fill-opacity:1;stroke:none;stroke-width:0.2;stroke-linecap:butt;stroke-linejoin:miter;stroke-miterlimit:4;stroke-dasharray:none;stroke-opacity:1"
         d="m 45.509317,149.85802 64.589023,-0.003 0.001,-0.38991 H 45.485859 Z"
         id="path959" />
      <path
         style="fill:#7f90a7;fill-opacity:1;stroke:none;stroke-width:0.2;stroke-linecap:butt;stroke-linejoin:miter;stroke-miterlimit:4;stroke-dasharray:none;stroke-opacity:1"
         d="m 109.34733,73.624444 v 76.228936 l 0.75101,0.001 V 73.616049 Z"
         id="path961" />
      <path
         style="fill:#7f90a7;fill-opacity:1;stroke:none;stroke-width:0.2;stroke-linecap:butt;stroke-linejoin:miter;stroke-miterlimit:4;stroke-dasharray:none;stroke-opacity:1"
         d="m 109.34733,73.624444 0.006,0.486053 -63.842289,-0.03283 -0.0017,-0.399812 z"
         id="path963"
         sodipodi:nodetypes="ccccc" />
      <path
         style="fill:#ffffff;fill-opacity:1;stroke:none;stroke-width:0.2;stroke-linecap:butt;stroke-linejoin:miter;stroke-miterlimit:4;stroke-dasharray:none;stroke-opacity:1"
         d="M 44.020052,72.065885 H 111.4113 c 0.82757,0 1.54379,-0.667276 2.19829,-1.627003 H 42.141722 c 0.500349,0.730975 1.043658,1.627003 1.87833,1.627003 z"
         id="path967"
         sodipodi:nodetypes="ssccs" />
      <path
         sodipodi:nodetypes="ssccs"
         id="path969"
         d="m 113.01158,73.113725 v 76.670555 c 0,0.94152 0.66727,1.75636 1.627,2.50098 V 70.976762 c -0.73098,0.569244 -1.627,1.187363 -1.627,2.136963 z"
         style="fill:#ffffff;fill-opacity:1;stroke:none;stroke-width:0.213325;stroke-linecap:butt;stroke-linejoin:miter;stroke-miterlimit:4;stroke-dasharray:none;stroke-opacity:1" />
      <path
         style="fill:#ffffff;fill-opacity:1;stroke:none;stroke-width:0.213325;stroke-linecap:butt;stroke-linejoin:miter;stroke-miterlimit:4;stroke-dasharray:none;stroke-opacity:1"
         d="m 42.559459,73.164675 v 76.670565 c 0,0.94152 -0.66727,1.75636 -1.627,2.50098 V 71.027715 c 0.73098,0.56924 1.627,1.18736 1.627,2.13696 z"
         id="path971"
         sodipodi:nodetypes="ssccs" />
      <path
         sodipodi:nodetypes="ssccs"
         id="path973"
         d="M 111.80824,151.01323 H 44.416984 c -0.82757,0 -1.54379,0.66728 -2.19829,1.62701 h 71.467876 c -0.50035,-0.73098 -1.04366,-1.62701 -1.87833,-1.62701 z"
         style="fill:#ffffff;fill-opacity:1;stroke:none;stroke-width:0.2;stroke-linecap:butt;stroke-linejoin:miter;stroke-miterlimit:4;stroke-dasharray:none;stroke-opacity:1" />
      <rect
         style="opacity:1;fill:#9699a5;fill-opacity:1;stroke-width:0.346504;stroke-miterlimit:4;stroke-dasharray:none"
         id="rect977"
         width="3.4230468"
         height="9.7565098"
         x="110.84388"
         y="107.37122"
         ry="0.26458332" />
      <rect
         style="opacity:1;fill:#ffffff;fill-opacity:1;stroke-width:0.360892;stroke-miterlimit:4;stroke-dasharray:none"
         id="rect979"
         width="2.8764882"
         height="9.2240868"
         x="111.22421"
         y="107.54263"
         ry="0.14499308" />
      <path
         style="fill:#ffffff;fill-opacity:1;stroke:#a2adaf;stroke-width:0.3;stroke-linecap:butt;stroke-linejoin:miter;stroke-miterlimit:4;stroke-dasharray:none;stroke-opacity:1"
         d="m 105.95065,118.78961 -0.0117,-0.76005 5.78962,-7.31797 0.66146,-0.12403 1.2733,1.02526 -0.0661,0.54571 -5.92832,7.45794 -0.47956,0.008 z"
         id="path984" />
      <path
         style="fill:#3d8fad;fill-opacity:1;stroke:none;stroke-width:0.0529167;stroke-linecap:butt;stroke-linejoin:miter;stroke-miterlimit:4;stroke-dasharray:none;stroke-opacity:1"
         d="m 61.275846,135.47493 9.057801,9.19138 0.222165,-0.31571 -9.167344,-9.15565 z"
         id="path994" />
      <path
         style="fill:#236197;fill-opacity:1;stroke:none;stroke-width:0.0529167;stroke-linecap:butt;stroke-linejoin:miter;stroke-miterlimit:4;stroke-dasharray:none;stroke-opacity:1"
         d="m 62.65664,134.22643 c -0.917923,-0.006 -1.433443,0.29911 -1.901693,0.97152 l 0.434083,0.34726 c 0.202924,-0.76515 0.657287,-1.19218 1.46761,-1.31878 z"
         id="path988"
         sodipodi:nodetypes="cccc" />
      <path
         style="fill:#236197;fill-opacity:1;stroke:none;stroke-width:0.0529167;stroke-linecap:butt;stroke-linejoin:miter;stroke-miterlimit:4;stroke-dasharray:none;stroke-opacity:1"
         d="m 54.429752,129.07532 c 0.07159,0.24188 0.242997,0.43096 0.06523,0.66914 l 0.345386,-0.0336 0.02923,-0.21047 z"
         id="path990"
         sodipodi:nodetypes="ccccc" />
      <path
         style="fill:#3d8fad;fill-opacity:1;stroke:none;stroke-width:0.0529167;stroke-linecap:butt;stroke-linejoin:miter;stroke-miterlimit:4;stroke-dasharray:none;stroke-opacity:1"
         d="m 51.90792,126.23959 -8.913129,-8.96303 0.223242,-0.30179 9.057846,9.07956 z"
         id="path992"
         sodipodi:nodetypes="ccccc" />
      <path
         style="fill:#a0d0f5;fill-opacity:1;stroke:#237394;stroke-width:0.0529167;stroke-linecap:butt;stroke-linejoin:miter;stroke-miterlimit:4;stroke-dasharray:none;stroke-opacity:1"
         d="m 43.292447,117.01198 c 0.907145,0.16714 1.74135,0.1337 2.298568,-0.66146 l 0.677995,-0.14056 0.752409,0.0165 27.764713,27.45878 c -0.553971,-0.13684 -1.107943,-0.25659 -1.661914,-0.23977 -0.540728,0.21014 -0.779886,0.55431 -1.050065,0.8847 l -1.518341,0.0204 z"
         id="path996"
         sodipodi:nodetypes="ccccccccc" />
      <path
         style="fill:#f9960f;fill-opacity:1;stroke:#237394;stroke-width:0.0529167;stroke-linecap:butt;stroke-linejoin:miter;stroke-miterlimit:4;stroke-dasharray:none;stroke-opacity:1"
         d="m 46.26901,116.20996 0.0062,-0.1881 1.350547,0.0316 27.813563,27.05307 -0.0016,0.25603 -1.80081,1.92678 -0.264583,-0.0165 c -0.207506,-0.50693 -0.755577,-0.65326 -1.331436,-0.77017 l 0.03332,-0.17244 c 0.408818,-0.98925 1.098667,-1.53907 2.711979,-0.64493 L 47.021477,116.22652 Z"
         id="path998"
         sodipodi:nodetypes="cccccccccccc" />
      <path
         style="fill:#63a9d2;fill-opacity:1;stroke:#237394;stroke-width:0.132292;stroke-linecap:butt;stroke-linejoin:miter;stroke-miterlimit:4;stroke-dasharray:none;stroke-opacity:1"
         d="m 51.759114,126.38815 2.116667,-1.07487 8.780859,8.91315 c -0.644493,0.16961 -1.183244,0.53749 -1.455208,1.4056 l -0.677995,-0.52917 -3.803386,-3.25768 c -0.350983,-0.0719 -0.688903,-0.0655 -1.008724,0.0496 -3.842352,1.73252 -7.354388,4.37341 -10.699088,7.47448 l -6.779948,5.35781 c -1.403449,1.10907 -3.821089,0.98099 -4.431771,-0.66151 -0.394878,-1.06207 0.176176,-2.4843 1.091407,-3.07578 L 49.477083,131.564 c 1.620755,-0.87797 3.308416,-1.65558 5.421749,-1.79468 l 0.03508,-0.29233 z"
         id="path986"
         sodipodi:nodetypes="ccccccccssscccc" />
      <path
         style="fill:#c7ecfb;fill-opacity:1;stroke:none;stroke-width:0.0529167;stroke-linecap:butt;stroke-linejoin:miter;stroke-miterlimit:4;stroke-dasharray:none;stroke-opacity:1"
         d="m 52.66546,131.38302 c -5.152901,2.65458 -10.329719,5.2693 -15.226919,8.35005 -2.269644,1.64745 -2.481949,2.26623 -2.877344,2.97656 0.378952,0.87568 0.701712,0.50016 1.289844,0.33073 0.623242,-1.1354 1.447801,-2.1926 2.644628,-2.94288 4.693863,-2.94255 10.266442,-6.43327 14.169791,-8.71446 z"
         id="path1000"
         sodipodi:nodetypes="ccccsc" />
      <path
         style="fill:#c8ebfd;fill-opacity:1;stroke:none;stroke-width:0.0529167;stroke-linecap:butt;stroke-linejoin:miter;stroke-miterlimit:4;stroke-dasharray:none;stroke-opacity:1"
         d="m 46.037499,116.9293 c 0.165929,-0.23487 0.387715,-0.29324 0.628386,-0.29766 l 26.216842,26.03516 c -0.3573,0.13771 -0.854188,0.63987 -1.461629,0.0234 z"
         id="path1002"
         sodipodi:nodetypes="cccsc" />
      <path
         style="fill:#eef5ff;fill-opacity:1;stroke:none;stroke-width:0.0529167;stroke-linecap:butt;stroke-linejoin:miter;stroke-miterlimit:4;stroke-dasharray:none;stroke-opacity:1"
         d="m 47.261197,116.02806 47.813102,-41.92349 14.279031,0.0059 -0.0308,35.6089 -33.883201,33.38713 -27.813563,-27.05307 z"
         id="path1004"
         sodipodi:nodetypes="ccccccc" />
      <path
         style="fill:#b6bdd7;fill-opacity:1;stroke:none;stroke-width:0.0529167;stroke-linecap:butt;stroke-linejoin:miter;stroke-miterlimit:4;stroke-dasharray:none;stroke-opacity:1"
         d="m 47.682877,115.60638 c 6.52255,-6.31337 12.915273,-12.79552 19.852018,-18.570444 0,0 11.930888,-11.029327 18.289323,-16.073437 2.472151,-1.961143 7.703233,-5.502608 7.703233,-5.502608 z"
         id="path1006"
         sodipodi:nodetypes="ccscc" />
      <path
         style="fill:#b6bdd7;fill-opacity:1;stroke:none;stroke-width:0.0529167;stroke-linecap:butt;stroke-linejoin:miter;stroke-miterlimit:4;stroke-dasharray:none;stroke-opacity:1"
         d="m 76.497655,142.05644 -3.340364,6.01101 c 1.587448,-1.46079 3.080626,-3.04728 4.7625,-4.38217 0.121073,-0.006 0.22036,-0.16791 0.146822,0.0767 -0.263667,0.25429 -0.450204,0.6108 -0.659453,0.86591 4.373367,-4.1095 8.798689,-9.09647 12.132256,-12.8938 3.695646,-4.20978 7.214562,-8.32414 11.081214,-12.23392 2.75465,-2.78537 5.96879,-5.57628 8.74238,-8.46634 l -0.0401,-1.3144 z"
         id="path1008"
         sodipodi:nodetypes="cccccssccc" />
      <path
         style="fill:#fdfdfd;fill-opacity:1;stroke:none;stroke-width:0.0529167;stroke-linecap:butt;stroke-linejoin:miter;stroke-miterlimit:4;stroke-dasharray:none;stroke-opacity:1"
         d="M 53.928308,116.7901 C 66.058813,105.70052 78.95195,95.98368 92.328258,87.136546 L 73.01933,101.95429 94.386232,87.744585 81.944836,96.724841 100.63032,85.125342 86.364805,94.994269 98.40864,87.627655 C 87.290636,94.872314 76.41934,102.31434 66.179292,110.26137 l 9.310986,-8.29805 z"
         id="path1014"
         sodipodi:nodetypes="ccccccccccc" />
      <path
         sodipodi:type="star"
         style="opacity:1;fill:#fdfdfd;fill-opacity:1;stroke-width:0.0529167;stroke-miterlimit:4;stroke-dasharray:none"
         id="path1016"
         sodipodi:sides="8"
         sodipodi:cx="91.082809"
         sodipodi:cy="81.557808"
         sodipodi:r1="3.0455828"
         sodipodi:r2="1.5227914"
         sodipodi:arg1="0.97074611"
         sodipodi:arg2="1.3634452"
         inkscape:flatsided="false"
         inkscape:rounded="0"
         inkscape:randomized="0"
         d="m 92.802601,84.071349 -1.406297,-1.023368 -0.874761,1.503246 -0.27077,-1.718034 -1.681505,0.444407 1.023369,-1.406297 -1.503246,-0.874761 1.718033,-0.270771 -0.444406,-1.681505 1.406297,1.023369 0.87476,-1.503246 0.270771,1.718033 1.681505,-0.444406 -1.023369,1.406297 1.503246,0.874761 -1.718033,0.270771 z"
         inkscape:transform-center-x="-0.026600813"
         inkscape:transform-center-y="-0.26541222" />
      <path
         inkscape:transform-center-y="-0.26541222"
         inkscape:transform-center-x="-0.026600813"
         d="m 80.23489,137.12031 -1.406297,-1.02337 -0.87476,1.50324 -0.270771,-1.71803 -1.681505,0.44441 1.023369,-1.4063 -1.503246,-0.87476 1.718033,-0.27077 -0.444406,-1.68151 1.406297,1.02337 0.874761,-1.50324 0.270771,1.71803 1.681504,-0.44441 -1.023369,1.4063 1.503246,0.87476 -1.718033,0.27077 z"
         inkscape:randomized="0"
         inkscape:rounded="0"
         inkscape:flatsided="false"
         sodipodi:arg2="1.3634452"
         sodipodi:arg1="0.97074611"
         sodipodi:r2="1.5227914"
         sodipodi:r1="3.0455828"
         sodipodi:cy="134.60677"
         sodipodi:cx="78.515099"
         sodipodi:sides="8"
         id="path1018"
         style="opacity:1;fill:#ffffff;fill-opacity:1;stroke-width:0.0529167;stroke-miterlimit:4;stroke-dasharray:none"
         sodipodi:type="star" />
      <path
         sodipodi:nodetypes="ccsccccc"
         id="path872"
         d="m 34.852289,145.24765 c 0.882943,0.30087 1.785987,0.53341 2.778125,0.46302 2.706413,-1.58653 5.008992,-3.7231 7.536569,-5.84613 2.192267,-1.84139 4.467328,-3.862 6.665066,-5.68698 1.503885,-1.07939 2.692035,-1.72704 4.311801,-2.34101 -1.597688,0.19147 -3.216575,1.35875 -4.401333,2.08411 -4.689306,3.26493 -9.101374,7.08433 -13.649083,10.63246 -0.968344,0.5036 -2.12799,0.54261 -3.241145,0.69453 z"
         style="fill:#2279a0;fill-opacity:1;stroke:none;stroke-width:0.1;stroke-linecap:butt;stroke-linejoin:miter;stroke-miterlimit:4;stroke-dasharray:none;stroke-opacity:1" />
      <path
         sodipodi:nodetypes="cccc"
         id="path870"
         d="m 55.635544,129.03639 c 1.726714,2.00336 3.417558,4.04976 5.355412,5.79975 0.172983,-0.10955 0.212752,-0.26906 0.210476,-0.44434 -1.701058,-2.217 -3.654501,-3.72733 -5.565888,-5.35541 z"
         style="fill:#cbedf8;fill-opacity:1;stroke:none;stroke-width:0.2;stroke-linecap:butt;stroke-linejoin:miter;stroke-miterlimit:4;stroke-dasharray:none;stroke-opacity:1" />
      <path
         d="m 102.14955,94.05551 c -11.302864,5.33851 -22.106289,10.95036 -30.691663,19.14922 l 7.540625,-4.66328 -1.322916,1.25677 2.579687,-1.32292 -1.5875,2.11667 13.692187,-8.66511 c 0,0 -10.31875,5.15942 -10.914062,5.22552 -0.595313,0.0662 20.703642,-13.09687 20.703642,-13.09687 z m -23.481767,16.53646 -5.027083,3.00963 4.034896,-3.80338 c -0.409537,-0.31853 -10.008264,7.1758 -9.789584,7.57369 l 5.344377,-3.42924 -3.414262,3.64835 c 6.004135,-3.77489 11.899795,-8.41828 18.147729,-10.24278 -7.211447,4.45468 -12.757671,9.74197 -18.054194,15.15411 8.289106,-7.53626 15.516994,-12.486 22.4038,-16.60415 0,0 -3.180645,0.795 -3.554822,0.84181 -0.374177,0.0468 10.336836,-6.26732 10.336836,-6.26732 l -21.122224,10.97917 z"
         style="fill:#ffffff;fill-opacity:1;stroke:none;stroke-width:0.2;stroke-linecap:butt;stroke-linejoin:miter;stroke-miterlimit:4;stroke-dasharray:none;stroke-opacity:1"
         id="path874" />
    </g>
  </g>
</svg>
