<?xml version="1.0" encoding="UTF-8" standalone="no"?>
<svg
   xmlns:dc="http://purl.org/dc/elements/1.1/"
   xmlns:cc="http://creativecommons.org/ns#"
   xmlns:rdf="http://www.w3.org/1999/02/22-rdf-syntax-ns#"
   xmlns:svg="http://www.w3.org/2000/svg"
   xmlns="http://www.w3.org/2000/svg"
   xmlns:sodipodi="http://sodipodi.sourceforge.net/DTD/sodipodi-0.dtd"
   xmlns:inkscape="http://www.inkscape.org/namespaces/inkscape"
   sodipodi:docname="why-us-bg.svg"
   inkscape:version="1.0 (4035a4f, 2020-05-01)"
   id="svg8"
   version="1.1"
   viewBox="0 0 507.99998 285.75001"
   height="1080"
   width="1920">
  <defs
     id="defs2" />
  <sodipodi:namedview
     units="px"
     inkscape:window-maximized="0"
     inkscape:window-y="23"
     inkscape:window-x="0"
     inkscape:window-height="723"
     inkscape:window-width="1252"
     showborder="true"
     showgrid="false"
     inkscape:document-rotation="0"
     inkscape:current-layer="layer1"
     inkscape:document-units="px"
     inkscape:cy="675.37581"
     inkscape:cx="735.57668"
     inkscape:zoom="0.175"
     inkscape:pageshadow="2"
     inkscape:pageopacity="0.0"
     borderopacity="1.0"
     bordercolor="#666666"
     pagecolor="#ffffff"
     id="base" />
  <metadata
     id="metadata5">
    <rdf:RDF>
      <cc:Work
         rdf:about="">
        <dc:format>image/svg+xml</dc:format>
        <dc:type
           rdf:resource="http://purl.org/dc/dcmitype/StillImage" />
        <dc:title />
      </cc:Work>
    </rdf:RDF>
  </metadata>
  <g
     id="layer1"
     inkscape:groupmode="layer"
     inkscape:label="Layer 1">
    <g
       id="g848">
      <rect
         style="fill:none;fill-opacity:1;stroke-width:0.19471"
         id="rect833"
         width="507.99997"
         height="285.75"
         x="1.4241481e-05"
         y="-1.6550885e-08" />
      <path
         style="fill:#f3f7fa;fill-opacity:1;stroke:none;stroke-width:0.0682999px;stroke-linecap:butt;stroke-linejoin:miter;stroke-opacity:1"
         d="M 2.730556e-6,285.74998 8.4722814e-8,210.60956 C 27.156578,202.42425 49.450821,193.43699 93.650198,189.4638 c 21.143232,-1.90061 40.644942,0.68493 59.994172,4.91191 54.07317,11.81267 69.76351,3.42809 136.11977,-29.63515 33.37678,-16.63061 39.36468,-47.73272 129.71472,-40.98622 46.06698,3.43986 72.03038,-10.21475 88.47362,-27.5444 L 508,285.74998 Z"
         id="path849"
         sodipodi:nodetypes="ccssssccc" />
      <path
         style="fill:#eff4f8;fill-opacity:1;stroke:none;stroke-width:0.0721641px;stroke-linecap:butt;stroke-linejoin:miter;stroke-opacity:1"
         d="M 0.13644306,225.62871 C 49.832538,230.37265 89.02668,255.68598 152.54378,228.21745 c 46.78113,-20.23092 100.90971,-30.78989 166.73639,-29.77298 53.69535,0.82951 76.82787,-7.90662 104.3481,-37.19644 18.49551,-19.68478 52.41044,-30.267 84.29082,-26.08614 L 508,285.74998 H 1.3313889e-5 Z"
         id="path907"
         sodipodi:nodetypes="cssscccc" />
    </g>
  </g>
</svg>
