<?xml version="1.0" encoding="UTF-8" standalone="no"?>
<svg
   xmlns:dc="http://purl.org/dc/elements/1.1/"
   xmlns:cc="http://creativecommons.org/ns#"
   xmlns:rdf="http://www.w3.org/1999/02/22-rdf-syntax-ns#"
   xmlns:svg="http://www.w3.org/2000/svg"
   xmlns="http://www.w3.org/2000/svg"
   xmlns:sodipodi="http://sodipodi.sourceforge.net/DTD/sodipodi-0.dtd"
   xmlns:inkscape="http://www.inkscape.org/namespaces/inkscape"
   sodipodi:docname="why-us-bg.svg"
   inkscape:version="1.0 (4035a4f, 2020-05-01)"
   id="svg8"
   version="1.1"
   viewBox="0 0 507.99998 285.75001"
   height="1080"
   width="1920">
  <defs
     id="defs2" />
  <sodipodi:namedview
     units="px"
     inkscape:window-maximized="0"
     inkscape:window-y="55"
     inkscape:window-x="0"
     inkscape:window-height="723"
     inkscape:window-width="1252"
     showborder="true"
     showgrid="false"
     inkscape:document-rotation="0"
     inkscape:current-layer="layer1"
     inkscape:document-units="px"
     inkscape:cy="605.65207"
     inkscape:cx="1818.1123"
     inkscape:zoom="0.24748737"
     inkscape:pageshadow="2"
     inkscape:pageopacity="0.0"
     borderopacity="1.0"
     bordercolor="#666666"
     pagecolor="#ffffff"
     id="base" />
  <metadata
     id="metadata5">
    <rdf:RDF>
      <cc:Work
         rdf:about="">
        <dc:format>image/svg+xml</dc:format>
        <dc:type
           rdf:resource="http://purl.org/dc/dcmitype/StillImage" />
        <dc:title></dc:title>
      </cc:Work>
    </rdf:RDF>
  </metadata>
  <g
     id="layer1"
     inkscape:groupmode="layer"
     inkscape:label="Layer 1">
    <g
       transform="matrix(0.26458332,0,0,0.26458333,98.006083,-5.600347)"
       id="g926">
      <rect
         style="fill:none;fill-opacity:1;stroke-width:0.735911"
         id="rect833"
         width="1920"
         height="1080"
         x="-370.41666"
         y="21.166666" />
      <path
         style="fill:#f3f7fa;fill-opacity:1;stroke:none;stroke-width:0.264583px;stroke-linecap:butt;stroke-linejoin:miter;stroke-opacity:1"
         d="m -370.4167,1101.1666 -1e-5,-298.34517 c 102.63904,-32.49979 186.90075,-68.18373 353.95352,-83.95926 79.91144,-7.54639 153.61869,2.7195 226.74965,19.50272 204.37103,46.90221 263.6731,13.61122 514.46843,-117.66644 126.14847,-66.03184 148.77992,-189.52284 490.26041,-162.73585 174.1114,13.65794 272.2408,-40.55767 334.3885,-109.36509 l 0.1796,752.56909 z"
         id="path849"
         sodipodi:nodetypes="ccssssccc" />
      <path
         style="fill:#eff4f8;fill-opacity:1;stroke:none;stroke-width:0.264583px;stroke-linecap:butt;stroke-linejoin:miter;stroke-opacity:1"
         d="m -369.90102,887.33483 c 187.82777,16.87266 335.963117,106.9039 576.02776,9.20728 176.81056,-71.95476 381.39105,-109.5096 630.18482,-105.89275 202.94304,2.9503 290.37304,-28.12128 394.38654,-132.29564 69.9043,-70.01241 198.0867,-107.64988 318.5795,-92.77994 l 0.3058,535.59282 H -370.41666 Z"
         id="path907"
         sodipodi:nodetypes="cssscccc" />
    </g>
  </g>
</svg>
