<?xml version="1.0" encoding="UTF-8" standalone="no"?>
<svg
   xmlns:dc="http://purl.org/dc/elements/1.1/"
   xmlns:cc="http://creativecommons.org/ns#"
   xmlns:rdf="http://www.w3.org/1999/02/22-rdf-syntax-ns#"
   xmlns:svg="http://www.w3.org/2000/svg"
   xmlns="http://www.w3.org/2000/svg"
   xmlns:xlink="http://www.w3.org/1999/xlink"
   xmlns:sodipodi="http://sodipodi.sourceforge.net/DTD/sodipodi-0.dtd"
   xmlns:inkscape="http://www.inkscape.org/namespaces/inkscape"
   version="1.1"
   id="Capa_1"
   x="0px"
   y="0px"
   viewBox="0 0 100 100"
   xml:space="preserve"
   sodipodi:docname="windowIcon.svg"
   inkscape:version="1.0 (4035a4f, 2020-05-01)"
   width="100"
   height="100"><metadata
   id="metadata898"><rdf:RDF><cc:Work
       rdf:about=""><dc:format>image/svg+xml</dc:format><dc:type
         rdf:resource="http://purl.org/dc/dcmitype/StillImage" /><dc:title /></cc:Work></rdf:RDF></metadata><defs
   id="defs896"><linearGradient
     id="linearGradient891"
     inkscape:collect="always"><stop
       id="stop887"
       offset="0"
       style="stop-color:#f3f7fa;stop-opacity:1;" /><stop
       id="stop889"
       offset="1"
       style="stop-color:#f3f7fa;stop-opacity:0;" /></linearGradient><linearGradient
     gradientUnits="userSpaceOnUse"
     y2="96.314995"
     x2="50.149384"
     y1="6.3075457"
     x1="50.149384"
     id="linearGradient893"
     xlink:href="#linearGradient891"
     inkscape:collect="always" /></defs><sodipodi:namedview
   inkscape:document-rotation="0"
   pagecolor="#ffffff"
   bordercolor="#666666"
   borderopacity="1"
   objecttolerance="10"
   gridtolerance="10"
   guidetolerance="10"
   inkscape:pageopacity="0"
   inkscape:pageshadow="2"
   inkscape:window-width="1280"
   inkscape:window-height="755"
   id="namedview894"
   showgrid="false"
   showborder="true"
   inkscape:zoom="1.4142136"
   inkscape:cx="75.661115"
   inkscape:cy="45.850694"
   inkscape:window-x="0"
   inkscape:window-y="23"
   inkscape:window-maximized="0"
   inkscape:current-layer="Capa_1" />





<g
   id="g863">
</g>
<g
   id="g865">
</g>
<g
   id="g867">
</g>
<g
   id="g869">
</g>
<g
   id="g871">
</g>
<g
   id="g873">
</g>
<g
   id="g875">
</g>
<g
   id="g877">
</g>
<g
   id="g879">
</g>
<g
   id="g881">
</g>
<g
   id="g883">
</g>
<g
   id="g885">
</g>
<g
   id="g887">
</g>
<g
   id="g889">
</g>
<g
   id="g891">
</g>
<g
   id="g912"><circle
     r="45"
     cy="51.298759"
     cx="50.144112"
     id="path900"
     style="fill:url(#linearGradient893);fill-opacity:1;stroke-width:0.340415" /><g
     style="fill:#1a9094;fill-opacity:1"
     transform="matrix(0.11718727,0,0,0.1208228,20.144111,20.368059)"
     id="g917"><g
       id="g837"
       style="fill:#1a9094;fill-opacity:1">
	<g
   id="g835"
   style="fill:#1a9094;fill-opacity:1">
		<path
   d="M 498.05,7.703 H 105.236 c -7.691,0 -13.949,6.257 -13.949,13.95 v 214.62 L 77.891,222.877 c -2.367,-2.367 -5.518,-3.67 -8.875,-3.67 -3.357,0 -6.508,1.303 -8.875,3.67 l -23.261,23.26 c -2.368,2.367 -3.67,5.518 -3.67,8.875 0,3.357 1.303,6.508 3.67,8.875 l 54.408,54.408 v 21.51 c -1.966,2.274 -3.047,5.144 -3.047,8.188 0,3.044 1.081,5.914 3.047,8.188 V 379.59 L 3.671,467.206 C 1.303,469.573 0,472.725 0,476.082 c 0,3.357 1.303,6.508 3.67,8.875 l 15.672,15.671 c 2.447,2.447 5.661,3.67 8.875,3.67 3.214,0 6.428,-1.223 8.875,-3.67 l 9.323,-9.323 c 2.941,-2.941 2.941,-7.709 0,-10.649 -2.941,-2.941 -7.709,-2.941 -10.649,0 l -7.549,7.549 -12.122,-12.122 108.9,-108.899 12.121,12.122 -75.245,75.244 c -2.941,2.941 -2.941,7.709 0,10.649 2.941,2.941 7.709,2.941 10.649,0 l 18.766,-18.766 v 29.652 c 0,7.691 6.257,13.95 13.949,13.95 h 273.223 c 4.159,0 7.531,-3.372 7.531,-7.531 0,-4.159 -3.372,-7.531 -7.531,-7.531 H 227.132 l 10.416,-10.416 2.863,2.862 c 2.367,2.368 5.518,3.67 8.875,3.67 3.357,0 6.508,-1.303 8.875,-3.67 l 23.261,-23.261 c 4.894,-4.894 4.894,-12.856 0,-17.75 l -2.863,-2.863 218.379,-218.379 V 474.973 H 425.65 c -4.159,0 -7.531,3.372 -7.531,7.531 0,4.159 3.372,7.531 7.531,7.531 h 72.401 c 7.691,0 13.95,-6.257 13.95,-13.95 V 21.652 C 512,13.961 505.742,7.703 498.05,7.703 Z M 133.869,354.758 c -2.367,-2.367 -5.518,-3.67 -8.875,-3.67 -3.357,0 -6.508,1.303 -8.875,3.67 l -2.511,2.511 -9.275,-9.276 21.61,-21.609 51.971,51.971 -21.609,21.611 -9.276,-9.276 2.511,-2.51 c 4.894,-4.894 4.894,-12.856 0,-17.75 z m 71.965,120.215 h -99.486 v -43.602 l 30.032,-30.032 11.05,11.05 c 2.367,2.367 5.518,3.67 8.875,3.67 3.357,0 6.508,-1.303 8.875,-3.67 l 10.101,-10.101 51.619,51.619 z m 43.452,-19.978 -63.357,-63.357 4.409,-4.409 c 2.367,-2.367 3.67,-5.518 3.67,-8.875 0,-3.357 -1.303,-6.508 -3.67,-8.875 l -55.52,-55.52 c -2.367,-2.367 -5.518,-3.67 -8.875,-3.67 -3.357,0 -6.508,1.303 -8.875,3.67 l -4.409,4.409 -63.357,-63.357 19.712,-19.712 199.983,199.983 z m 18.625,-42.098 -21.953,-21.953 66.145,-66.144 c 2.941,-2.941 2.941,-7.709 0,-10.65 -2.941,-2.942 -7.709,-2.941 -10.65,0 l -66.145,66.144 -98.084,-98.083 35.907,-35.908 c 2.941,-2.941 2.941,-7.709 0,-10.649 -2.941,-2.941 -7.709,-2.941 -10.649,0 l -35.907,35.908 -10.8,-10.801 120.889,-120.889 c 2.941,-2.941 2.941,-7.709 0,-10.649 -2.941,-2.941 -7.709,-2.941 -10.649,0 L 106.347,248.889 V 22.764 H 332.471 L 255.896,99.34 c -2.941,2.941 -2.941,7.709 0,10.649 2.941,2.941 7.709,2.941 10.649,0 L 353.77,22.763 h 143.167 v 161.106 h 0.002 z"
   id="path833"
   style="fill:#1a9094;fill-opacity:1" />
	</g>
</g><g
       style="fill:#1a9094;fill-opacity:1"
       id="g843">
	<g
   style="fill:#1a9094;fill-opacity:1"
   id="g841">
		<path
   style="fill:#1a9094;fill-opacity:1"
   d="m 68.72,168.941 c -13.707,-4.269 -15.358,-5.921 -19.628,-19.63 -1.406,-4.509 -5.523,-7.54 -10.248,-7.54 -4.726,0 -8.845,3.031 -10.249,7.542 -4.267,13.707 -5.918,15.358 -19.623,19.627 -4.514,1.404 -7.547,5.521 -7.547,10.248 -0.001,4.726 3.032,8.846 7.543,10.249 13.708,4.268 15.358,5.919 19.626,19.626 1.404,4.512 5.522,7.544 10.25,7.544 4.724,0 8.843,-3.03 10.248,-7.542 4.27,-13.709 5.921,-15.359 19.624,-19.626 4.513,-1.403 7.546,-5.522 7.546,-10.251 -0.001,-4.727 -3.033,-8.845 -7.542,-10.247 z m -29.875,24.663 c -3.343,-6.962 -7.453,-11.073 -14.417,-14.417 6.964,-3.344 11.073,-7.453 14.417,-14.417 3.344,6.963 7.452,11.072 14.415,14.417 -6.962,3.344 -11.072,7.454 -14.415,14.417 z"
   id="path839" />
	</g>
</g><g
       style="fill:#1a9094;fill-opacity:1"
       id="g849">
	<g
   style="fill:#1a9094;fill-opacity:1"
   id="g847">
		<path
   style="fill:#1a9094;fill-opacity:1"
   d="M 377.182,87.099 C 358.807,81.376 356.323,78.892 350.6,60.517 c -1.522,-4.892 -5.988,-8.178 -11.113,-8.178 -5.125,0 -9.592,3.287 -11.113,8.179 -5.72,18.374 -8.204,20.859 -26.579,26.581 -4.894,1.523 -8.181,5.988 -8.181,11.112 0,5.127 3.288,9.595 8.179,11.114 18.377,5.722 20.861,8.206 26.58,26.578 1.522,4.894 5.988,8.182 11.114,8.182 5.125,0 9.591,-3.287 11.113,-8.179 5.723,-18.375 8.207,-20.859 26.578,-26.58 4.895,-1.521 8.183,-5.988 8.183,-11.116 0,-5.125 -3.288,-9.59 -8.179,-11.111 z m -37.694,34.914 c -5.084,-12.821 -10.979,-18.716 -23.803,-23.801 12.822,-5.086 18.718,-10.982 23.802,-23.803 5.086,12.82 10.982,18.716 23.803,23.802 -12.82,5.086 -18.716,10.981 -23.802,23.802 z"
   id="path845" />
	</g>
</g><g
       style="fill:#1a9094;fill-opacity:1"
       id="g855">
	<g
   style="fill:#1a9094;fill-opacity:1"
   id="g853">
		<path
   style="fill:#1a9094;fill-opacity:1"
   d="m 373.41,247.648 c -10.456,-3.257 -11.416,-4.217 -14.673,-14.674 -1.32,-4.24 -5.191,-7.089 -9.632,-7.089 -4.441,0 -8.312,2.849 -9.632,7.089 -3.255,10.456 -4.215,11.416 -14.669,14.672 -4.242,1.319 -7.092,5.19 -7.092,9.631 0,4.443 2.85,8.315 7.089,9.633 10.457,3.256 11.417,4.216 14.672,14.672 1.319,4.241 5.19,7.09 9.632,7.09 4.441,0 8.313,-2.849 9.631,-7.088 3.257,-10.457 4.217,-11.417 14.669,-14.672 4.242,-1.319 7.092,-5.19 7.092,-9.634 0.002,-4.442 -2.849,-8.313 -7.087,-9.63 z m -24.305,17.936 c -2.132,-3.594 -4.712,-6.174 -8.306,-8.306 3.594,-2.132 6.175,-4.713 8.306,-8.306 2.132,3.593 4.712,6.174 8.306,8.306 -3.593,2.132 -6.173,4.712 -8.306,8.306 z"
   id="path851" />
	</g>
</g><g
       style="fill:#1a9094;fill-opacity:1"
       id="g861">
	<g
   style="fill:#1a9094;fill-opacity:1"
   id="g859">
		<path
   style="fill:#1a9094;fill-opacity:1"
   d="m 355.749,162.67 c -2.941,-2.942 -7.709,-2.941 -10.649,0 L 235.983,271.786 c -2.941,2.941 -2.941,7.709 0,10.649 1.47,1.471 3.398,2.206 5.325,2.206 1.928,0 3.855,-0.735 5.325,-2.206 L 355.749,173.32 c 2.941,-2.94 2.941,-7.709 0,-10.65 z"
   id="path857" />
	</g>
</g></g></g></svg>
